<svg xmlns="http://www.w3.org/2000/svg" width="66" height="28" fill="none" viewBox="0 0 66 28"><rect width="59" height="21" x="6" y="1" fill="#000" stroke="#fff" stroke-width="2"/><rect width="59" height="21" x="1" y="6" fill="#000" stroke="#00A000" stroke-width="2"/><path fill="#00A000" d="M9.986 23L5.18 10.076H7.664L11.228 20.12L14.81 10.076H17.186L12.416 23H9.986ZM27.3294 10.076V12.092H20.8494V15.332H26.3034V17.348H20.8494V20.984H27.3294V23H18.5814V10.076H27.3294ZM31.5729 23H29.2689V10.076H34.4349C37.3149 10.076 39.1149 11.084 39.1149 13.694C39.1149 15.728 37.9989 16.898 36.1089 17.348L39.4389 23H36.8109L33.6609 17.348H31.5729V23ZM34.3089 15.332C36.2349 15.332 36.8469 14.954 36.8469 13.694C36.8469 12.416 35.9649 12.056 34.3089 12.056H31.5729V15.332H34.3089ZM43.3327 23H41.0287V10.076H43.3327V23ZM46.2248 19.022C47.1248 20.426 48.4748 21.236 49.9508 21.236C51.4088 21.236 52.5068 20.57 52.5068 19.328C52.5068 18.014 51.1568 17.834 49.2308 17.366C47.2868 16.898 45.1988 16.322 45.1988 13.802C45.1988 11.408 47.2508 9.878 49.8608 9.878C52.0748 9.878 53.8028 10.922 54.6668 12.272L52.9748 13.73C52.2548 12.614 51.3008 11.84 49.7888 11.84C48.4028 11.84 47.4488 12.542 47.4488 13.568C47.4488 14.702 48.4388 14.936 50.1848 15.332C52.2728 15.8 54.7748 16.286 54.7748 19.094C54.7748 21.632 52.5428 23.198 49.8788 23.198C47.6648 23.198 45.4688 22.136 44.4608 20.48L46.2248 19.022Z"/></svg>